<mxfile host="app.diagrams.net" modified="2023-12-28T00:41:47.891Z" agent="Mozilla/5.0 (Macintosh; Intel Mac OS X 10_15_7) AppleWebKit/537.36 (KHTML, like Gecko) Chrome/120.0.0.0 Safari/537.36" etag="9oZG7CYOfWj9GOUvByi4" version="22.1.15" type="github">
  <diagram name="Strona-1" id="N_dNfgAPEgXGJc9P8XzQ">
    <mxGraphModel dx="1194" dy="765" grid="1" gridSize="10" guides="1" tooltips="1" connect="1" arrows="1" fold="1" page="1" pageScale="1" pageWidth="827" pageHeight="1169" math="0" shadow="0">
      <root>
        <mxCell id="0" />
        <mxCell id="1" parent="0" />
        <mxCell id="XITEbqGkFx2yabzySH7h-2" value="" style="verticalLabelPosition=bottom;verticalAlign=top;html=1;shape=mxgraph.basic.orthogonal_triangle;flipV=0;flipH=1;" vertex="1" parent="1">
          <mxGeometry x="200" y="220" width="410" height="180" as="geometry" />
        </mxCell>
        <mxCell id="XITEbqGkFx2yabzySH7h-3" value="" style="fontColor=#0066CC;verticalAlign=top;verticalLabelPosition=bottom;labelPosition=center;align=center;html=1;outlineConnect=0;fillColor=#CCCCCC;strokeColor=#6881B3;gradientColor=none;gradientDirection=north;strokeWidth=2;shape=mxgraph.networks.satellite_dish;" vertex="1" parent="1">
          <mxGeometry x="180" y="350" width="50" height="50" as="geometry" />
        </mxCell>
        <mxCell id="XITEbqGkFx2yabzySH7h-6" value="" style="shape=image;html=1;verticalAlign=top;verticalLabelPosition=bottom;labelBackgroundColor=#ffffff;imageAspect=0;aspect=fixed;image=https://cdn4.iconfinder.com/data/icons/transportation-190/1000/aeroplane_aircraft_plane_fighter_military_military_airplane_airplane-128.png" vertex="1" parent="1">
          <mxGeometry x="570" y="170" width="78" height="78" as="geometry" />
        </mxCell>
        <mxCell id="XITEbqGkFx2yabzySH7h-10" value="" style="verticalLabelPosition=bottom;verticalAlign=top;html=1;shape=mxgraph.basic.diag_stripe;dx=10;fillColor=#f8cecc;strokeColor=#b85450;" vertex="1" parent="1">
          <mxGeometry x="200" y="220" width="410" height="180" as="geometry" />
        </mxCell>
        <mxCell id="XITEbqGkFx2yabzySH7h-12" value="" style="verticalLabelPosition=bottom;verticalAlign=top;html=1;shape=mxgraph.basic.diag_stripe;dx=10;rotation=30;fillColor=#d5e8d4;strokeColor=#82b366;" vertex="1" parent="1">
          <mxGeometry x="227.59" y="299.36" width="356.29" height="203.48" as="geometry" />
        </mxCell>
      </root>
    </mxGraphModel>
  </diagram>
</mxfile>
